solid ASCII
  facet normal 0.000000e+00 0.000000e+00 1.000000e+00
    outer loop
      vertex   0.000000e+00 0.000000e+00 9.500000e+01
      vertex   5.000000e+01 0.000000e+00 9.500000e+01
      vertex   0.000000e+00 3.000000e+01 9.500000e+01
    endloop
  endfacet
  facet normal -0.000000e+00 0.000000e+00 1.000000e+00
    outer loop
      vertex   0.000000e+00 3.000000e+01 9.500000e+01
      vertex   5.000000e+01 0.000000e+00 9.500000e+01
      vertex   5.000000e+01 3.000000e+01 9.500000e+01
    endloop
  endfacet
  facet normal -1.000000e+00 0.000000e+00 0.000000e+00
    outer loop
      vertex   0.000000e+00 0.000000e+00 4.000000e+01
      vertex   0.000000e+00 0.000000e+00 9.500000e+01
      vertex   0.000000e+00 3.000000e+01 4.000000e+01
    endloop
  endfacet
  facet normal -1.000000e+00 0.000000e+00 0.000000e+00
    outer loop
      vertex   0.000000e+00 3.000000e+01 4.000000e+01
      vertex   0.000000e+00 0.000000e+00 9.500000e+01
      vertex   0.000000e+00 3.000000e+01 9.500000e+01
    endloop
  endfacet
  facet normal -7.071068e-01 0.000000e+00 7.071068e-01
    outer loop
      vertex   -3.000000e+01 0.000000e+00 1.000000e+01
      vertex   0.000000e+00 0.000000e+00 4.000000e+01
      vertex   -3.000000e+01 3.000000e+01 1.000000e+01
    endloop
  endfacet
  facet normal -7.071068e-01 0.000000e+00 7.071068e-01
    outer loop
      vertex   -3.000000e+01 3.000000e+01 1.000000e+01
      vertex   0.000000e+00 0.000000e+00 4.000000e+01
      vertex   0.000000e+00 3.000000e+01 4.000000e+01
    endloop
  endfacet
  facet normal -1.000000e+00 0.000000e+00 0.000000e+00
    outer loop
      vertex   -3.000000e+01 0.000000e+00 -7.500000e+01
      vertex   -3.000000e+01 0.000000e+00 1.000000e+01
      vertex   -3.000000e+01 3.000000e+01 -7.500000e+01
    endloop
  endfacet
  facet normal -1.000000e+00 0.000000e+00 0.000000e+00
    outer loop
      vertex   -3.000000e+01 3.000000e+01 -7.500000e+01
      vertex   -3.000000e+01 0.000000e+00 1.000000e+01
      vertex   -3.000000e+01 3.000000e+01 1.000000e+01
    endloop
  endfacet
  facet normal 0.000000e+00 0.000000e+00 -1.000000e+00
    outer loop
      vertex   0.000000e+00 0.000000e+00 -7.500000e+01
      vertex   -3.000000e+01 0.000000e+00 -7.500000e+01
      vertex   0.000000e+00 3.000000e+01 -7.500000e+01
    endloop
  endfacet
  facet normal -0.000000e+00 0.000000e+00 -1.000000e+00
    outer loop
      vertex   0.000000e+00 3.000000e+01 -7.500000e+01
      vertex   -3.000000e+01 0.000000e+00 -7.500000e+01
      vertex   -3.000000e+01 3.000000e+01 -7.500000e+01
    endloop
  endfacet
  facet normal 1.000000e+00 -0.000000e+00 0.000000e+00
    outer loop
      vertex   0.000000e+00 0.000000e+00 -2.000000e+01
      vertex   0.000000e+00 0.000000e+00 -7.500000e+01
      vertex   0.000000e+00 3.000000e+01 -2.000000e+01
    endloop
  endfacet
  facet normal 1.000000e+00 0.000000e+00 0.000000e+00
    outer loop
      vertex   0.000000e+00 3.000000e+01 -2.000000e+01
      vertex   0.000000e+00 0.000000e+00 -7.500000e+01
      vertex   0.000000e+00 3.000000e+01 -7.500000e+01
    endloop
  endfacet
  facet normal 0.000000e+00 0.000000e+00 -1.000000e+00
    outer loop
      vertex   5.000000e+01 0.000000e+00 -2.000000e+01
      vertex   0.000000e+00 0.000000e+00 -2.000000e+01
      vertex   5.000000e+01 3.000000e+01 -2.000000e+01
    endloop
  endfacet
  facet normal -0.000000e+00 0.000000e+00 -1.000000e+00
    outer loop
      vertex   5.000000e+01 3.000000e+01 -2.000000e+01
      vertex   0.000000e+00 0.000000e+00 -2.000000e+01
      vertex   0.000000e+00 3.000000e+01 -2.000000e+01
    endloop
  endfacet
  facet normal -1.000000e+00 0.000000e+00 0.000000e+00
    outer loop
      vertex   5.000000e+01 0.000000e+00 -7.500000e+01
      vertex   5.000000e+01 0.000000e+00 -2.000000e+01
      vertex   5.000000e+01 3.000000e+01 -7.500000e+01
    endloop
  endfacet
  facet normal -1.000000e+00 0.000000e+00 0.000000e+00
    outer loop
      vertex   5.000000e+01 3.000000e+01 -7.500000e+01
      vertex   5.000000e+01 0.000000e+00 -2.000000e+01
      vertex   5.000000e+01 3.000000e+01 -2.000000e+01
    endloop
  endfacet
  facet normal 0.000000e+00 0.000000e+00 -1.000000e+00
    outer loop
      vertex   8.000000e+01 0.000000e+00 -7.500000e+01
      vertex   5.000000e+01 0.000000e+00 -7.500000e+01
      vertex   8.000000e+01 3.000000e+01 -7.500000e+01
    endloop
  endfacet
  facet normal -0.000000e+00 0.000000e+00 -1.000000e+00
    outer loop
      vertex   8.000000e+01 3.000000e+01 -7.500000e+01
      vertex   5.000000e+01 0.000000e+00 -7.500000e+01
      vertex   5.000000e+01 3.000000e+01 -7.500000e+01
    endloop
  endfacet
  facet normal 1.000000e+00 -0.000000e+00 0.000000e+00
    outer loop
      vertex   8.000000e+01 0.000000e+00 1.000000e+01
      vertex   8.000000e+01 0.000000e+00 -7.500000e+01
      vertex   8.000000e+01 3.000000e+01 1.000000e+01
    endloop
  endfacet
  facet normal 1.000000e+00 0.000000e+00 0.000000e+00
    outer loop
      vertex   8.000000e+01 3.000000e+01 1.000000e+01
      vertex   8.000000e+01 0.000000e+00 -7.500000e+01
      vertex   8.000000e+01 3.000000e+01 -7.500000e+01
    endloop
  endfacet
  facet normal 7.071068e-01 -0.000000e+00 7.071068e-01
    outer loop
      vertex   5.000000e+01 0.000000e+00 4.000000e+01
      vertex   8.000000e+01 0.000000e+00 1.000000e+01
      vertex   5.000000e+01 3.000000e+01 4.000000e+01
    endloop
  endfacet
  facet normal 7.071068e-01 0.000000e+00 7.071068e-01
    outer loop
      vertex   5.000000e+01 3.000000e+01 4.000000e+01
      vertex   8.000000e+01 0.000000e+00 1.000000e+01
      vertex   8.000000e+01 3.000000e+01 1.000000e+01
    endloop
  endfacet
  facet normal 1.000000e+00 -0.000000e+00 0.000000e+00
    outer loop
      vertex   5.000000e+01 0.000000e+00 9.500000e+01
      vertex   5.000000e+01 0.000000e+00 4.000000e+01
      vertex   5.000000e+01 3.000000e+01 9.500000e+01
    endloop
  endfacet
  facet normal 1.000000e+00 0.000000e+00 0.000000e+00
    outer loop
      vertex   5.000000e+01 3.000000e+01 9.500000e+01
      vertex   5.000000e+01 0.000000e+00 4.000000e+01
      vertex   5.000000e+01 3.000000e+01 4.000000e+01
    endloop
  endfacet
  facet normal 0.000000e+00 1.000000e+00 0.000000e+00
    outer loop
      vertex   5.000000e+01 3.000000e+01 9.500000e+01
      vertex   5.000000e+01 3.000000e+01 4.000000e+01
      vertex   0.000000e+00 3.000000e+01 9.500000e+01
    endloop
  endfacet
  facet normal 0.000000e+00 1.000000e+00 0.000000e+00
    outer loop
      vertex   0.000000e+00 3.000000e+01 9.500000e+01
      vertex   5.000000e+01 3.000000e+01 4.000000e+01
      vertex   0.000000e+00 3.000000e+01 4.000000e+01
    endloop
  endfacet
  facet normal -0.000000e+00 1.000000e+00 0.000000e+00
    outer loop
      vertex   0.000000e+00 3.000000e+01 4.000000e+01
      vertex   5.000000e+01 3.000000e+01 4.000000e+01
      vertex   5.000000e+01 3.000000e+01 -2.000000e+01
    endloop
  endfacet
  facet normal 0.000000e+00 1.000000e+00 0.000000e+00
    outer loop
      vertex   0.000000e+00 3.000000e+01 4.000000e+01
      vertex   5.000000e+01 3.000000e+01 -2.000000e+01
      vertex   0.000000e+00 3.000000e+01 -2.000000e+01
    endloop
  endfacet
  facet normal 0.000000e+00 1.000000e+00 0.000000e+00
    outer loop
      vertex   5.000000e+01 3.000000e+01 4.000000e+01
      vertex   8.000000e+01 3.000000e+01 1.000000e+01
      vertex   5.000000e+01 3.000000e+01 -2.000000e+01
    endloop
  endfacet
  facet normal -0.000000e+00 1.000000e+00 0.000000e+00
    outer loop
      vertex   5.000000e+01 3.000000e+01 -2.000000e+01
      vertex   8.000000e+01 3.000000e+01 1.000000e+01
      vertex   8.000000e+01 3.000000e+01 -7.500000e+01
    endloop
  endfacet
  facet normal 0.000000e+00 1.000000e+00 0.000000e+00
    outer loop
      vertex   5.000000e+01 3.000000e+01 -2.000000e+01
      vertex   8.000000e+01 3.000000e+01 -7.500000e+01
      vertex   5.000000e+01 3.000000e+01 -7.500000e+01
    endloop
  endfacet
  facet normal 0.000000e+00 1.000000e+00 -0.000000e+00
    outer loop
      vertex   0.000000e+00 3.000000e+01 -7.500000e+01
      vertex   -3.000000e+01 3.000000e+01 -7.500000e+01
      vertex   0.000000e+00 3.000000e+01 -2.000000e+01
    endloop
  endfacet
  facet normal 0.000000e+00 1.000000e+00 0.000000e+00
    outer loop
      vertex   0.000000e+00 3.000000e+01 -2.000000e+01
      vertex   -3.000000e+01 3.000000e+01 -7.500000e+01
      vertex   -3.000000e+01 3.000000e+01 1.000000e+01
    endloop
  endfacet
  facet normal 0.000000e+00 1.000000e+00 -0.000000e+00
    outer loop
      vertex   0.000000e+00 3.000000e+01 -2.000000e+01
      vertex   -3.000000e+01 3.000000e+01 1.000000e+01
      vertex   0.000000e+00 3.000000e+01 4.000000e+01
    endloop
  endfacet
  facet normal -0.000000e+00 -1.000000e+00 -0.000000e+00
    outer loop
      vertex   5.000000e+01 0.000000e+00 9.500000e+01
      vertex   0.000000e+00 0.000000e+00 9.500000e+01
      vertex   5.000000e+01 0.000000e+00 4.000000e+01
    endloop
  endfacet
  facet normal -0.000000e+00 -1.000000e+00 0.000000e+00
    outer loop
      vertex   5.000000e+01 0.000000e+00 4.000000e+01
      vertex   0.000000e+00 0.000000e+00 9.500000e+01
      vertex   0.000000e+00 0.000000e+00 4.000000e+01
    endloop
  endfacet
  facet normal 0.000000e+00 -1.000000e+00 -0.000000e+00
    outer loop
      vertex   5.000000e+01 0.000000e+00 4.000000e+01
      vertex   0.000000e+00 0.000000e+00 4.000000e+01
      vertex   5.000000e+01 0.000000e+00 -2.000000e+01
    endloop
  endfacet
  facet normal 0.000000e+00 -1.000000e+00 0.000000e+00
    outer loop
      vertex   5.000000e+01 0.000000e+00 -2.000000e+01
      vertex   0.000000e+00 0.000000e+00 4.000000e+01
      vertex   0.000000e+00 0.000000e+00 -2.000000e+01
    endloop
  endfacet
  facet normal 0.000000e+00 -1.000000e+00 0.000000e+00
    outer loop
      vertex   0.000000e+00 0.000000e+00 -2.000000e+01
      vertex   0.000000e+00 0.000000e+00 4.000000e+01
      vertex   -3.000000e+01 0.000000e+00 1.000000e+01
    endloop
  endfacet
  facet normal -0.000000e+00 -1.000000e+00 0.000000e+00
    outer loop
      vertex   0.000000e+00 0.000000e+00 -2.000000e+01
      vertex   -3.000000e+01 0.000000e+00 1.000000e+01
      vertex   -3.000000e+01 0.000000e+00 -7.500000e+01
    endloop
  endfacet
  facet normal 0.000000e+00 -1.000000e+00 0.000000e+00
    outer loop
      vertex   -3.000000e+01 0.000000e+00 -7.500000e+01
      vertex   0.000000e+00 0.000000e+00 -7.500000e+01
      vertex   0.000000e+00 0.000000e+00 -2.000000e+01
    endloop
  endfacet
  facet normal 0.000000e+00 -1.000000e+00 0.000000e+00
    outer loop
      vertex   5.000000e+01 0.000000e+00 -7.500000e+01
      vertex   8.000000e+01 0.000000e+00 -7.500000e+01
      vertex   5.000000e+01 0.000000e+00 -2.000000e+01
    endloop
  endfacet
  facet normal 0.000000e+00 -1.000000e+00 0.000000e+00
    outer loop
      vertex   5.000000e+01 0.000000e+00 -2.000000e+01
      vertex   8.000000e+01 0.000000e+00 -7.500000e+01
      vertex   8.000000e+01 0.000000e+00 1.000000e+01
    endloop
  endfacet
  facet normal 0.000000e+00 -1.000000e+00 0.000000e+00
    outer loop
      vertex   5.000000e+01 0.000000e+00 -2.000000e+01
      vertex   8.000000e+01 0.000000e+00 1.000000e+01
      vertex   5.000000e+01 0.000000e+00 4.000000e+01
    endloop
  endfacet
endsolid
