<svg viewBox="0 0 512 512" xmlns="http://www.w3.org/2000/svg"><path d="m256 0c-140.96875 0-256 115.050781-256 256 0 140.96875 115.050781 256 256 256 140.96875 0 256-115.050781 256-256 0-140.96875-115.050781-256-256-256zm0 482c-124.617188 0-226-101.382812-226-226s101.382812-226 226-226 226 101.382812 226 226-101.382812 226-226 226zm0 0"/><path d="m181 226v80.855469c-8.777344-3.730469-18.992188-5.855469-30-5.855469-33.644531 0-60 19.765625-60 45s26.355469 45 60 45 60-19.765625 60-45v-109.84375l120-48v88.699219c-8.777344-3.730469-18.992188-5.855469-30-5.855469-33.644531 0-60 19.765625-60 45s26.355469 45 60 45 60-19.765625 60-45v-232.15625l-180 72zm-30 135c-18.3125 0-30-8.882812-30-15s11.6875-15 30-15 30 8.882812 30 15-11.6875 15-30 15zm150-30c-18.3125 0-30-8.882812-30-15s11.6875-15 30-15 30 8.882812 30 15-11.6875 15-30 15zm-90-154.84375 120-48v27.6875l-120 48zm0 0"/></svg>