<svg viewBox="0 0 512 512" xmlns="http://www.w3.org/2000/svg"><path d="m256 0c-140.96875 0-256 115.050781-256 256 0 140.96875 115.050781 256 256 256 140.96875 0 256-115.050781 256-256 0-140.96875-115.050781-256-256-256zm0 482c-124.617188 0-226-101.382812-226-226s101.382812-226 226-226 226 101.382812 226 226-101.382812 226-226 226zm0 0"/><path d="m391 243.578125v-17.578125c0-74.4375-60.5625-135-135-135s-135 60.5625-135 135v17.578125c-17.460938 6.195313-30 22.867187-30 42.421875v30c0 24.8125 20.1875 45 45 45h45v-120h-30v-15c0-57.898438 47.101562-105 105-105s105 47.101562 105 105v15h-30v120h45c24.8125 0 45-20.1875 45-45v-30c0-19.554688-12.539062-36.226562-30-42.421875zm-240 87.421875h-15c-8.269531 0-15-6.730469-15-15v-30c0-8.269531 6.730469-15 15-15h15zm240-15c0 8.269531-6.730469 15-15 15h-15v-60h15c8.269531 0 15 6.730469 15 15zm0 0"/></svg>