<svg viewBox="0 0 512 512" xmlns="http://www.w3.org/2000/svg"><path d="m256 0c-140.96875 0-256 115.050781-256 256 0 140.96875 115.050781 256 256 256 140.96875 0 256-115.050781 256-256 0-140.96875-115.050781-256-256-256zm0 482c-124.617188 0-226-101.382812-226-226s101.382812-226 226-226 226 101.382812 226 226-101.382812 226-226 226zm0 0"/><path d="m331 226c0 41.355469-33.644531 75-75 75s-75-33.644531-75-75v-60h-30v60c0 52.804688 39.183594 96.621094 90 103.925781v31.074219h-60v30h150v-30h-60v-31.074219c50.816406-7.304687 90-51.121093 90-103.925781v-60h-30zm0 0"/><path d="m256 271c24.8125 0 45-20.1875 45-45v-90c0-24.8125-20.1875-45-45-45s-45 20.1875-45 45v90c0 24.8125 20.1875 45 45 45zm-15-135c0-8.269531 6.730469-15 15-15s15 6.730469 15 15v90c0 8.269531-6.730469 15-15 15s-15-6.730469-15-15zm0 0"/></svg>