<svg viewBox="0 0 512 512" xmlns="http://www.w3.org/2000/svg"><path d="m256 0c-140.96875 0-256 115.050781-256 256 0 140.96875 115.050781 256 256 256 68.113281 0 132.328125-26.703125 180.8125-75.1875s75.1875-112.699219 75.1875-180.8125c0-140.96875-115.050781-256-256-256zm0 482c-124.617188 0-226-101.382812-226-226s101.382812-226 226-226 226 101.382812 226 226-101.382812 226-226 226zm0 0"/><path d="m241 271h30v60h-30zm0 0"/><path d="m346 181c0-49.625-40.375-90-90-90s-90 40.375-90 90v30h-30v180h240v-180h-30zm-150 0c0-33.085938 26.914062-60 60-60s60 26.914062 60 60v30h-120zm150 180h-180v-120h180zm0 0"/></svg>