solid ASCII
  facet normal 0.000000e+00 0.000000e+00 -1.000000e+00
    outer loop
      vertex   2.925000e+02 3.000000e+01 3.978530e+01
      vertex   3.075000e+02 3.000000e+01 3.978530e+01
      vertex   2.925000e+02 0.000000e+00 3.978530e+01
    endloop
  endfacet
  facet normal 0.000000e+00 0.000000e+00 -1.000000e+00
    outer loop
      vertex   2.925000e+02 0.000000e+00 3.978530e+01
      vertex   3.075000e+02 3.000000e+01 3.978530e+01
      vertex   3.075000e+02 0.000000e+00 3.978530e+01
    endloop
  endfacet
  facet normal 8.660254e-01 0.000000e+00 -5.000000e-01
    outer loop
      vertex   3.075000e+02 3.000000e+01 3.978530e+01
      vertex   3.925000e+02 3.000000e+01 1.870096e+02
      vertex   3.075000e+02 0.000000e+00 3.978530e+01
    endloop
  endfacet
  facet normal 8.660254e-01 0.000000e+00 -5.000000e-01
    outer loop
      vertex   3.075000e+02 0.000000e+00 3.978530e+01
      vertex   3.925000e+02 3.000000e+01 1.870096e+02
      vertex   3.925000e+02 0.000000e+00 1.870096e+02
    endloop
  endfacet
  facet normal -0.000000e+00 1.000000e+00 0.000000e+00
    outer loop
      vertex   3.125000e+02 3.000000e+01 1.367906e+02
      vertex   3.925000e+02 3.000000e+01 1.870096e+02
      vertex   3.125000e+02 3.000000e+01 8.679059e+01
    endloop
  endfacet
  facet normal -0.000000e+00 1.000000e+00 0.000000e+00
    outer loop
      vertex   3.125000e+02 3.000000e+01 8.679059e+01
      vertex   3.925000e+02 3.000000e+01 1.870096e+02
      vertex   3.075000e+02 3.000000e+01 3.978530e+01
    endloop
  endfacet
  facet normal 0.000000e+00 1.000000e+00 0.000000e+00
    outer loop
      vertex   3.125000e+02 3.000000e+01 8.679059e+01
      vertex   3.075000e+02 3.000000e+01 3.978530e+01
      vertex   2.925000e+02 3.000000e+01 3.978530e+01
    endloop
  endfacet
  facet normal 0.000000e+00 1.000000e+00 0.000000e+00
    outer loop
      vertex   2.875000e+02 3.000000e+01 1.367906e+02
      vertex   3.000000e+02 3.000000e+01 1.483962e+02
      vertex   3.125000e+02 3.000000e+01 1.367906e+02
    endloop
  endfacet
  facet normal 0.000000e+00 1.000000e+00 0.000000e+00
    outer loop
      vertex   3.125000e+02 3.000000e+01 1.367906e+02
      vertex   3.000000e+02 3.000000e+01 1.483962e+02
      vertex   3.033378e+02 3.000000e+01 1.487723e+02
    endloop
  endfacet
  facet normal 0.000000e+00 1.000000e+00 0.000000e+00
    outer loop
      vertex   3.125000e+02 3.000000e+01 1.367906e+02
      vertex   3.033378e+02 3.000000e+01 1.487723e+02
      vertex   3.065083e+02 3.000000e+01 1.498817e+02
    endloop
  endfacet
  facet normal 0.000000e+00 1.000000e+00 -0.000000e+00
    outer loop
      vertex   2.875000e+02 3.000000e+01 8.679059e+01
      vertex   2.075000e+02 3.000000e+01 1.870096e+02
      vertex   2.875000e+02 3.000000e+01 1.367906e+02
    endloop
  endfacet
  facet normal 0.000000e+00 1.000000e+00 0.000000e+00
    outer loop
      vertex   2.875000e+02 3.000000e+01 1.367906e+02
      vertex   2.075000e+02 3.000000e+01 1.870096e+02
      vertex   2.864855e+02 3.000000e+01 1.568880e+02
    endloop
  endfacet
  facet normal 0.000000e+00 1.000000e+00 -0.000000e+00
    outer loop
      vertex   2.875000e+02 3.000000e+01 1.367906e+02
      vertex   2.864855e+02 3.000000e+01 1.568880e+02
      vertex   2.882725e+02 3.000000e+01 1.540439e+02
    endloop
  endfacet
  facet normal 0.000000e+00 1.000000e+00 0.000000e+00
    outer loop
      vertex   2.075000e+02 3.000000e+01 1.870096e+02
      vertex   2.875000e+02 3.000000e+01 8.679059e+01
      vertex   2.925000e+02 3.000000e+01 3.978530e+01
    endloop
  endfacet
  facet normal 0.000000e+00 1.000000e+00 -0.000000e+00
    outer loop
      vertex   2.925000e+02 3.000000e+01 3.978530e+01
      vertex   2.875000e+02 3.000000e+01 8.679059e+01
      vertex   3.125000e+02 3.000000e+01 8.679059e+01
    endloop
  endfacet
  facet normal 0.000000e+00 1.000000e+00 0.000000e+00
    outer loop
      vertex   2.853761e+02 3.000000e+01 1.667341e+02
      vertex   2.850000e+02 3.000000e+01 1.633962e+02
      vertex   2.075000e+02 3.000000e+01 1.870096e+02
    endloop
  endfacet
  facet normal 0.000000e+00 1.000000e+00 0.000000e+00
    outer loop
      vertex   2.075000e+02 3.000000e+01 1.870096e+02
      vertex   2.850000e+02 3.000000e+01 1.633962e+02
      vertex   2.853761e+02 3.000000e+01 1.600584e+02
    endloop
  endfacet
  facet normal 0.000000e+00 1.000000e+00 0.000000e+00
    outer loop
      vertex   2.075000e+02 3.000000e+01 1.870096e+02
      vertex   2.853761e+02 3.000000e+01 1.600584e+02
      vertex   2.864855e+02 3.000000e+01 1.568880e+02
    endloop
  endfacet
  facet normal 0.000000e+00 1.000000e+00 0.000000e+00
    outer loop
      vertex   2.882725e+02 3.000000e+01 1.540439e+02
      vertex   2.906477e+02 3.000000e+01 1.516688e+02
      vertex   2.875000e+02 3.000000e+01 1.367906e+02
    endloop
  endfacet
  facet normal 0.000000e+00 1.000000e+00 0.000000e+00
    outer loop
      vertex   2.875000e+02 3.000000e+01 1.367906e+02
      vertex   2.906477e+02 3.000000e+01 1.516688e+02
      vertex   2.934917e+02 3.000000e+01 1.498817e+02
    endloop
  endfacet
  facet normal 0.000000e+00 1.000000e+00 0.000000e+00
    outer loop
      vertex   2.875000e+02 3.000000e+01 1.367906e+02
      vertex   2.934917e+02 3.000000e+01 1.498817e+02
      vertex   2.966622e+02 3.000000e+01 1.487723e+02
    endloop
  endfacet
  facet normal 0.000000e+00 1.000000e+00 0.000000e+00
    outer loop
      vertex   2.966622e+02 3.000000e+01 1.487723e+02
      vertex   3.000000e+02 3.000000e+01 1.483962e+02
      vertex   2.875000e+02 3.000000e+01 1.367906e+02
    endloop
  endfacet
  facet normal -0.000000e+00 1.000000e+00 0.000000e+00
    outer loop
      vertex   3.065083e+02 3.000000e+01 1.498817e+02
      vertex   3.093523e+02 3.000000e+01 1.516688e+02
      vertex   3.125000e+02 3.000000e+01 1.367906e+02
    endloop
  endfacet
  facet normal 0.000000e+00 1.000000e+00 0.000000e+00
    outer loop
      vertex   3.125000e+02 3.000000e+01 1.367906e+02
      vertex   3.093523e+02 3.000000e+01 1.516688e+02
      vertex   3.117275e+02 3.000000e+01 1.540439e+02
    endloop
  endfacet
  facet normal 0.000000e+00 1.000000e+00 -0.000000e+00
    outer loop
      vertex   3.125000e+02 3.000000e+01 1.367906e+02
      vertex   3.117275e+02 3.000000e+01 1.540439e+02
      vertex   3.135145e+02 3.000000e+01 1.568880e+02
    endloop
  endfacet
  facet normal 0.000000e+00 1.000000e+00 0.000000e+00
    outer loop
      vertex   3.125000e+02 3.000000e+01 1.367906e+02
      vertex   3.135145e+02 3.000000e+01 1.568880e+02
      vertex   3.925000e+02 3.000000e+01 1.870096e+02
    endloop
  endfacet
  facet normal 0.000000e+00 1.000000e+00 0.000000e+00
    outer loop
      vertex   3.925000e+02 3.000000e+01 1.870096e+02
      vertex   3.135145e+02 3.000000e+01 1.568880e+02
      vertex   3.146239e+02 3.000000e+01 1.600584e+02
    endloop
  endfacet
  facet normal 0.000000e+00 1.000000e+00 0.000000e+00
    outer loop
      vertex   3.925000e+02 3.000000e+01 1.870096e+02
      vertex   3.146239e+02 3.000000e+01 1.600584e+02
      vertex   3.150000e+02 3.000000e+01 1.633962e+02
    endloop
  endfacet
  facet normal 0.000000e+00 1.000000e+00 -0.000000e+00
    outer loop
      vertex   3.150000e+02 3.000000e+01 1.633962e+02
      vertex   3.146239e+02 3.000000e+01 1.667341e+02
      vertex   3.925000e+02 3.000000e+01 1.870096e+02
    endloop
  endfacet
  facet normal 0.000000e+00 1.000000e+00 0.000000e+00
    outer loop
      vertex   3.925000e+02 3.000000e+01 1.870096e+02
      vertex   3.146239e+02 3.000000e+01 1.667341e+02
      vertex   3.850000e+02 3.000000e+01 2.000000e+02
    endloop
  endfacet
  facet normal 0.000000e+00 1.000000e+00 0.000000e+00
    outer loop
      vertex   3.850000e+02 3.000000e+01 2.000000e+02
      vertex   3.146239e+02 3.000000e+01 1.667341e+02
      vertex   3.135145e+02 3.000000e+01 1.699045e+02
    endloop
  endfacet
  facet normal 0.000000e+00 1.000000e+00 0.000000e+00
    outer loop
      vertex   3.850000e+02 3.000000e+01 2.000000e+02
      vertex   3.135145e+02 3.000000e+01 1.699045e+02
      vertex   3.117275e+02 3.000000e+01 1.727486e+02
    endloop
  endfacet
  facet normal 0.000000e+00 1.000000e+00 -0.000000e+00
    outer loop
      vertex   3.117275e+02 3.000000e+01 1.727486e+02
      vertex   3.093523e+02 3.000000e+01 1.751237e+02
      vertex   3.850000e+02 3.000000e+01 2.000000e+02
    endloop
  endfacet
  facet normal 0.000000e+00 1.000000e+00 0.000000e+00
    outer loop
      vertex   3.850000e+02 3.000000e+01 2.000000e+02
      vertex   3.093523e+02 3.000000e+01 1.751237e+02
      vertex   3.065083e+02 3.000000e+01 1.769108e+02
    endloop
  endfacet
  facet normal 0.000000e+00 1.000000e+00 0.000000e+00
    outer loop
      vertex   3.850000e+02 3.000000e+01 2.000000e+02
      vertex   3.065083e+02 3.000000e+01 1.769108e+02
      vertex   3.033378e+02 3.000000e+01 1.780202e+02
    endloop
  endfacet
  facet normal 0.000000e+00 1.000000e+00 -0.000000e+00
    outer loop
      vertex   3.033378e+02 3.000000e+01 1.780202e+02
      vertex   3.000000e+02 3.000000e+01 1.783962e+02
      vertex   3.850000e+02 3.000000e+01 2.000000e+02
    endloop
  endfacet
  facet normal 0.000000e+00 1.000000e+00 0.000000e+00
    outer loop
      vertex   3.850000e+02 3.000000e+01 2.000000e+02
      vertex   3.000000e+02 3.000000e+01 1.783962e+02
      vertex   2.150000e+02 3.000000e+01 2.000000e+02
    endloop
  endfacet
  facet normal 0.000000e+00 1.000000e+00 0.000000e+00
    outer loop
      vertex   2.150000e+02 3.000000e+01 2.000000e+02
      vertex   3.000000e+02 3.000000e+01 1.783962e+02
      vertex   2.966622e+02 3.000000e+01 1.780202e+02
    endloop
  endfacet
  facet normal 0.000000e+00 1.000000e+00 0.000000e+00
    outer loop
      vertex   2.150000e+02 3.000000e+01 2.000000e+02
      vertex   2.966622e+02 3.000000e+01 1.780202e+02
      vertex   2.934917e+02 3.000000e+01 1.769108e+02
    endloop
  endfacet
  facet normal 0.000000e+00 1.000000e+00 0.000000e+00
    outer loop
      vertex   2.934917e+02 3.000000e+01 1.769108e+02
      vertex   2.906477e+02 3.000000e+01 1.751237e+02
      vertex   2.150000e+02 3.000000e+01 2.000000e+02
    endloop
  endfacet
  facet normal 0.000000e+00 1.000000e+00 0.000000e+00
    outer loop
      vertex   2.150000e+02 3.000000e+01 2.000000e+02
      vertex   2.906477e+02 3.000000e+01 1.751237e+02
      vertex   2.882725e+02 3.000000e+01 1.727486e+02
    endloop
  endfacet
  facet normal 0.000000e+00 1.000000e+00 0.000000e+00
    outer loop
      vertex   2.150000e+02 3.000000e+01 2.000000e+02
      vertex   2.882725e+02 3.000000e+01 1.727486e+02
      vertex   2.864855e+02 3.000000e+01 1.699045e+02
    endloop
  endfacet
  facet normal 0.000000e+00 1.000000e+00 0.000000e+00
    outer loop
      vertex   2.864855e+02 3.000000e+01 1.699045e+02
      vertex   2.853761e+02 3.000000e+01 1.667341e+02
      vertex   2.150000e+02 3.000000e+01 2.000000e+02
    endloop
  endfacet
  facet normal 0.000000e+00 1.000000e+00 0.000000e+00
    outer loop
      vertex   2.150000e+02 3.000000e+01 2.000000e+02
      vertex   2.853761e+02 3.000000e+01 1.667341e+02
      vertex   2.075000e+02 3.000000e+01 1.870096e+02
    endloop
  endfacet
  facet normal -8.660254e-01 0.000000e+00 5.000000e-01
    outer loop
      vertex   2.150000e+02 3.000000e+01 2.000000e+02
      vertex   2.075000e+02 3.000000e+01 1.870096e+02
      vertex   2.150000e+02 0.000000e+00 2.000000e+02
    endloop
  endfacet
  facet normal -8.660254e-01 0.000000e+00 5.000000e-01
    outer loop
      vertex   2.150000e+02 0.000000e+00 2.000000e+02
      vertex   2.075000e+02 3.000000e+01 1.870096e+02
      vertex   2.075000e+02 0.000000e+00 1.870096e+02
    endloop
  endfacet
  facet normal 0.000000e+00 0.000000e+00 1.000000e+00
    outer loop
      vertex   2.150000e+02 0.000000e+00 2.000000e+02
      vertex   3.850000e+02 0.000000e+00 2.000000e+02
      vertex   2.150000e+02 3.000000e+01 2.000000e+02
    endloop
  endfacet
  facet normal -0.000000e+00 0.000000e+00 1.000000e+00
    outer loop
      vertex   2.150000e+02 3.000000e+01 2.000000e+02
      vertex   3.850000e+02 0.000000e+00 2.000000e+02
      vertex   3.850000e+02 3.000000e+01 2.000000e+02
    endloop
  endfacet
  facet normal 8.660254e-01 0.000000e+00 5.000000e-01
    outer loop
      vertex   3.925000e+02 3.000000e+01 1.870096e+02
      vertex   3.850000e+02 3.000000e+01 2.000000e+02
      vertex   3.925000e+02 0.000000e+00 1.870096e+02
    endloop
  endfacet
  facet normal 8.660254e-01 0.000000e+00 5.000000e-01
    outer loop
      vertex   3.925000e+02 0.000000e+00 1.870096e+02
      vertex   3.850000e+02 3.000000e+01 2.000000e+02
      vertex   3.850000e+02 0.000000e+00 2.000000e+02
    endloop
  endfacet
  facet normal 0.000000e+00 0.000000e+00 -1.000000e+00
    outer loop
      vertex   3.125000e+02 0.000000e+00 1.367906e+02
      vertex   2.875000e+02 0.000000e+00 1.367906e+02
      vertex   3.125000e+02 3.000000e+01 1.367906e+02
    endloop
  endfacet
  facet normal -0.000000e+00 0.000000e+00 -1.000000e+00
    outer loop
      vertex   3.125000e+02 3.000000e+01 1.367906e+02
      vertex   2.875000e+02 0.000000e+00 1.367906e+02
      vertex   2.875000e+02 3.000000e+01 1.367906e+02
    endloop
  endfacet
  facet normal 0.000000e+00 0.000000e+00 1.000000e+00
    outer loop
      vertex   2.875000e+02 0.000000e+00 8.679059e+01
      vertex   3.125000e+02 0.000000e+00 8.679059e+01
      vertex   2.875000e+02 3.000000e+01 8.679059e+01
    endloop
  endfacet
  facet normal -0.000000e+00 0.000000e+00 1.000000e+00
    outer loop
      vertex   2.875000e+02 3.000000e+01 8.679059e+01
      vertex   3.125000e+02 0.000000e+00 8.679059e+01
      vertex   3.125000e+02 3.000000e+01 8.679059e+01
    endloop
  endfacet
  facet normal 1.000000e+00 0.000000e+00 -0.000000e+00
    outer loop
      vertex   2.875000e+02 3.000000e+01 8.679059e+01
      vertex   2.875000e+02 3.000000e+01 1.367906e+02
      vertex   2.875000e+02 0.000000e+00 8.679059e+01
    endloop
  endfacet
  facet normal 1.000000e+00 0.000000e+00 0.000000e+00
    outer loop
      vertex   2.875000e+02 0.000000e+00 8.679059e+01
      vertex   2.875000e+02 3.000000e+01 1.367906e+02
      vertex   2.875000e+02 0.000000e+00 1.367906e+02
    endloop
  endfacet
  facet normal 9.937122e-01 0.000000e+00 -1.119645e-01
    outer loop
      vertex   2.853761e+02 3.000000e+01 1.667341e+02
      vertex   2.853761e+02 0.000000e+00 1.667341e+02
      vertex   2.850000e+02 3.000000e+01 1.633962e+02
    endloop
  endfacet
  facet normal 9.937122e-01 0.000000e+00 -1.119645e-01
    outer loop
      vertex   2.850000e+02 3.000000e+01 1.633962e+02
      vertex   2.853761e+02 0.000000e+00 1.667341e+02
      vertex   2.850000e+02 0.000000e+00 1.633962e+02
    endloop
  endfacet
  facet normal 9.937122e-01 0.000000e+00 1.119645e-01
    outer loop
      vertex   2.850000e+02 3.000000e+01 1.633962e+02
      vertex   2.850000e+02 0.000000e+00 1.633962e+02
      vertex   2.853761e+02 3.000000e+01 1.600584e+02
    endloop
  endfacet
  facet normal 9.937122e-01 0.000000e+00 1.119645e-01
    outer loop
      vertex   2.853761e+02 3.000000e+01 1.600584e+02
      vertex   2.850000e+02 0.000000e+00 1.633962e+02
      vertex   2.853761e+02 0.000000e+00 1.600584e+02
    endloop
  endfacet
  facet normal 9.438833e-01 0.000000e+00 3.302791e-01
    outer loop
      vertex   2.853761e+02 3.000000e+01 1.600584e+02
      vertex   2.853761e+02 0.000000e+00 1.600584e+02
      vertex   2.864855e+02 3.000000e+01 1.568880e+02
    endloop
  endfacet
  facet normal 9.438833e-01 0.000000e+00 3.302791e-01
    outer loop
      vertex   2.864855e+02 3.000000e+01 1.568880e+02
      vertex   2.853761e+02 0.000000e+00 1.600584e+02
      vertex   2.864855e+02 0.000000e+00 1.568880e+02
    endloop
  endfacet
  facet normal 8.467242e-01 0.000000e+00 5.320321e-01
    outer loop
      vertex   2.864855e+02 3.000000e+01 1.568880e+02
      vertex   2.864855e+02 0.000000e+00 1.568880e+02
      vertex   2.882725e+02 3.000000e+01 1.540439e+02
    endloop
  endfacet
  facet normal 8.467242e-01 0.000000e+00 5.320321e-01
    outer loop
      vertex   2.882725e+02 3.000000e+01 1.540439e+02
      vertex   2.864855e+02 0.000000e+00 1.568880e+02
      vertex   2.882725e+02 0.000000e+00 1.540439e+02
    endloop
  endfacet
  facet normal 7.071068e-01 0.000000e+00 7.071068e-01
    outer loop
      vertex   2.882725e+02 3.000000e+01 1.540439e+02
      vertex   2.882725e+02 0.000000e+00 1.540439e+02
      vertex   2.906477e+02 3.000000e+01 1.516688e+02
    endloop
  endfacet
  facet normal 7.071068e-01 0.000000e+00 7.071068e-01
    outer loop
      vertex   2.906477e+02 3.000000e+01 1.516688e+02
      vertex   2.882725e+02 0.000000e+00 1.540439e+02
      vertex   2.906477e+02 0.000000e+00 1.516688e+02
    endloop
  endfacet
  facet normal 5.320321e-01 0.000000e+00 8.467242e-01
    outer loop
      vertex   2.906477e+02 3.000000e+01 1.516688e+02
      vertex   2.906477e+02 0.000000e+00 1.516688e+02
      vertex   2.934917e+02 3.000000e+01 1.498817e+02
    endloop
  endfacet
  facet normal 5.320321e-01 0.000000e+00 8.467242e-01
    outer loop
      vertex   2.934917e+02 3.000000e+01 1.498817e+02
      vertex   2.906477e+02 0.000000e+00 1.516688e+02
      vertex   2.934917e+02 0.000000e+00 1.498817e+02
    endloop
  endfacet
  facet normal 3.302791e-01 0.000000e+00 9.438833e-01
    outer loop
      vertex   2.934917e+02 3.000000e+01 1.498817e+02
      vertex   2.934917e+02 0.000000e+00 1.498817e+02
      vertex   2.966622e+02 3.000000e+01 1.487723e+02
    endloop
  endfacet
  facet normal 3.302791e-01 0.000000e+00 9.438833e-01
    outer loop
      vertex   2.966622e+02 3.000000e+01 1.487723e+02
      vertex   2.934917e+02 0.000000e+00 1.498817e+02
      vertex   2.966622e+02 0.000000e+00 1.487723e+02
    endloop
  endfacet
  facet normal 1.119645e-01 0.000000e+00 9.937122e-01
    outer loop
      vertex   2.966622e+02 3.000000e+01 1.487723e+02
      vertex   2.966622e+02 0.000000e+00 1.487723e+02
      vertex   3.000000e+02 3.000000e+01 1.483962e+02
    endloop
  endfacet
  facet normal 1.119645e-01 0.000000e+00 9.937122e-01
    outer loop
      vertex   3.000000e+02 3.000000e+01 1.483962e+02
      vertex   2.966622e+02 0.000000e+00 1.487723e+02
      vertex   3.000000e+02 0.000000e+00 1.483962e+02
    endloop
  endfacet
  facet normal -1.119645e-01 0.000000e+00 9.937122e-01
    outer loop
      vertex   3.000000e+02 3.000000e+01 1.483962e+02
      vertex   3.000000e+02 0.000000e+00 1.483962e+02
      vertex   3.033378e+02 3.000000e+01 1.487723e+02
    endloop
  endfacet
  facet normal -1.119645e-01 0.000000e+00 9.937122e-01
    outer loop
      vertex   3.033378e+02 3.000000e+01 1.487723e+02
      vertex   3.000000e+02 0.000000e+00 1.483962e+02
      vertex   3.033378e+02 0.000000e+00 1.487723e+02
    endloop
  endfacet
  facet normal -3.302791e-01 0.000000e+00 9.438833e-01
    outer loop
      vertex   3.033378e+02 3.000000e+01 1.487723e+02
      vertex   3.033378e+02 0.000000e+00 1.487723e+02
      vertex   3.065083e+02 3.000000e+01 1.498817e+02
    endloop
  endfacet
  facet normal -3.302791e-01 0.000000e+00 9.438833e-01
    outer loop
      vertex   3.065083e+02 3.000000e+01 1.498817e+02
      vertex   3.033378e+02 0.000000e+00 1.487723e+02
      vertex   3.065083e+02 0.000000e+00 1.498817e+02
    endloop
  endfacet
  facet normal -5.320321e-01 0.000000e+00 8.467242e-01
    outer loop
      vertex   3.065083e+02 3.000000e+01 1.498817e+02
      vertex   3.065083e+02 0.000000e+00 1.498817e+02
      vertex   3.093523e+02 3.000000e+01 1.516688e+02
    endloop
  endfacet
  facet normal -5.320321e-01 0.000000e+00 8.467242e-01
    outer loop
      vertex   3.093523e+02 3.000000e+01 1.516688e+02
      vertex   3.065083e+02 0.000000e+00 1.498817e+02
      vertex   3.093523e+02 0.000000e+00 1.516688e+02
    endloop
  endfacet
  facet normal -7.071068e-01 0.000000e+00 7.071068e-01
    outer loop
      vertex   3.093523e+02 3.000000e+01 1.516688e+02
      vertex   3.093523e+02 0.000000e+00 1.516688e+02
      vertex   3.117275e+02 3.000000e+01 1.540439e+02
    endloop
  endfacet
  facet normal -7.071068e-01 0.000000e+00 7.071068e-01
    outer loop
      vertex   3.117275e+02 3.000000e+01 1.540439e+02
      vertex   3.093523e+02 0.000000e+00 1.516688e+02
      vertex   3.117275e+02 0.000000e+00 1.540439e+02
    endloop
  endfacet
  facet normal -8.467242e-01 0.000000e+00 5.320321e-01
    outer loop
      vertex   3.117275e+02 3.000000e+01 1.540439e+02
      vertex   3.117275e+02 0.000000e+00 1.540439e+02
      vertex   3.135145e+02 3.000000e+01 1.568880e+02
    endloop
  endfacet
  facet normal -8.467242e-01 0.000000e+00 5.320321e-01
    outer loop
      vertex   3.135145e+02 3.000000e+01 1.568880e+02
      vertex   3.117275e+02 0.000000e+00 1.540439e+02
      vertex   3.135145e+02 0.000000e+00 1.568880e+02
    endloop
  endfacet
  facet normal -9.438833e-01 0.000000e+00 3.302791e-01
    outer loop
      vertex   3.135145e+02 3.000000e+01 1.568880e+02
      vertex   3.135145e+02 0.000000e+00 1.568880e+02
      vertex   3.146239e+02 3.000000e+01 1.600584e+02
    endloop
  endfacet
  facet normal -9.438833e-01 0.000000e+00 3.302791e-01
    outer loop
      vertex   3.146239e+02 3.000000e+01 1.600584e+02
      vertex   3.135145e+02 0.000000e+00 1.568880e+02
      vertex   3.146239e+02 0.000000e+00 1.600584e+02
    endloop
  endfacet
  facet normal -9.937122e-01 0.000000e+00 1.119645e-01
    outer loop
      vertex   3.146239e+02 3.000000e+01 1.600584e+02
      vertex   3.146239e+02 0.000000e+00 1.600584e+02
      vertex   3.150000e+02 3.000000e+01 1.633962e+02
    endloop
  endfacet
  facet normal -9.937122e-01 0.000000e+00 1.119645e-01
    outer loop
      vertex   3.150000e+02 3.000000e+01 1.633962e+02
      vertex   3.146239e+02 0.000000e+00 1.600584e+02
      vertex   3.150000e+02 0.000000e+00 1.633962e+02
    endloop
  endfacet
  facet normal -9.937122e-01 -0.000000e+00 -1.119645e-01
    outer loop
      vertex   3.150000e+02 3.000000e+01 1.633962e+02
      vertex   3.150000e+02 0.000000e+00 1.633962e+02
      vertex   3.146239e+02 3.000000e+01 1.667341e+02
    endloop
  endfacet
  facet normal -9.937122e-01 -0.000000e+00 -1.119645e-01
    outer loop
      vertex   3.146239e+02 3.000000e+01 1.667341e+02
      vertex   3.150000e+02 0.000000e+00 1.633962e+02
      vertex   3.146239e+02 0.000000e+00 1.667341e+02
    endloop
  endfacet
  facet normal -9.438833e-01 -0.000000e+00 -3.302791e-01
    outer loop
      vertex   3.146239e+02 3.000000e+01 1.667341e+02
      vertex   3.146239e+02 0.000000e+00 1.667341e+02
      vertex   3.135145e+02 3.000000e+01 1.699045e+02
    endloop
  endfacet
  facet normal -9.438833e-01 -0.000000e+00 -3.302791e-01
    outer loop
      vertex   3.135145e+02 3.000000e+01 1.699045e+02
      vertex   3.146239e+02 0.000000e+00 1.667341e+02
      vertex   3.135145e+02 0.000000e+00 1.699045e+02
    endloop
  endfacet
  facet normal -8.467242e-01 -0.000000e+00 -5.320321e-01
    outer loop
      vertex   3.135145e+02 3.000000e+01 1.699045e+02
      vertex   3.135145e+02 0.000000e+00 1.699045e+02
      vertex   3.117275e+02 3.000000e+01 1.727486e+02
    endloop
  endfacet
  facet normal -8.467242e-01 -0.000000e+00 -5.320321e-01
    outer loop
      vertex   3.117275e+02 3.000000e+01 1.727486e+02
      vertex   3.135145e+02 0.000000e+00 1.699045e+02
      vertex   3.117275e+02 0.000000e+00 1.727486e+02
    endloop
  endfacet
  facet normal -7.071068e-01 -0.000000e+00 -7.071068e-01
    outer loop
      vertex   3.117275e+02 3.000000e+01 1.727486e+02
      vertex   3.117275e+02 0.000000e+00 1.727486e+02
      vertex   3.093523e+02 3.000000e+01 1.751237e+02
    endloop
  endfacet
  facet normal -7.071068e-01 -0.000000e+00 -7.071068e-01
    outer loop
      vertex   3.093523e+02 3.000000e+01 1.751237e+02
      vertex   3.117275e+02 0.000000e+00 1.727486e+02
      vertex   3.093523e+02 0.000000e+00 1.751237e+02
    endloop
  endfacet
  facet normal -5.320321e-01 -0.000000e+00 -8.467242e-01
    outer loop
      vertex   3.093523e+02 3.000000e+01 1.751237e+02
      vertex   3.093523e+02 0.000000e+00 1.751237e+02
      vertex   3.065083e+02 3.000000e+01 1.769108e+02
    endloop
  endfacet
  facet normal -5.320321e-01 -0.000000e+00 -8.467242e-01
    outer loop
      vertex   3.065083e+02 3.000000e+01 1.769108e+02
      vertex   3.093523e+02 0.000000e+00 1.751237e+02
      vertex   3.065083e+02 0.000000e+00 1.769108e+02
    endloop
  endfacet
  facet normal -3.302791e-01 -0.000000e+00 -9.438833e-01
    outer loop
      vertex   3.065083e+02 3.000000e+01 1.769108e+02
      vertex   3.065083e+02 0.000000e+00 1.769108e+02
      vertex   3.033378e+02 3.000000e+01 1.780202e+02
    endloop
  endfacet
  facet normal -3.302791e-01 -0.000000e+00 -9.438833e-01
    outer loop
      vertex   3.033378e+02 3.000000e+01 1.780202e+02
      vertex   3.065083e+02 0.000000e+00 1.769108e+02
      vertex   3.033378e+02 0.000000e+00 1.780202e+02
    endloop
  endfacet
  facet normal -1.119645e-01 -0.000000e+00 -9.937122e-01
    outer loop
      vertex   3.033378e+02 3.000000e+01 1.780202e+02
      vertex   3.033378e+02 0.000000e+00 1.780202e+02
      vertex   3.000000e+02 3.000000e+01 1.783962e+02
    endloop
  endfacet
  facet normal -1.119645e-01 -0.000000e+00 -9.937122e-01
    outer loop
      vertex   3.000000e+02 3.000000e+01 1.783962e+02
      vertex   3.033378e+02 0.000000e+00 1.780202e+02
      vertex   3.000000e+02 0.000000e+00 1.783962e+02
    endloop
  endfacet
  facet normal 1.119645e-01 0.000000e+00 -9.937122e-01
    outer loop
      vertex   3.000000e+02 3.000000e+01 1.783962e+02
      vertex   3.000000e+02 0.000000e+00 1.783962e+02
      vertex   2.966622e+02 3.000000e+01 1.780202e+02
    endloop
  endfacet
  facet normal 1.119645e-01 0.000000e+00 -9.937122e-01
    outer loop
      vertex   2.966622e+02 3.000000e+01 1.780202e+02
      vertex   3.000000e+02 0.000000e+00 1.783962e+02
      vertex   2.966622e+02 0.000000e+00 1.780202e+02
    endloop
  endfacet
  facet normal 3.302791e-01 0.000000e+00 -9.438833e-01
    outer loop
      vertex   2.966622e+02 3.000000e+01 1.780202e+02
      vertex   2.966622e+02 0.000000e+00 1.780202e+02
      vertex   2.934917e+02 3.000000e+01 1.769108e+02
    endloop
  endfacet
  facet normal 3.302791e-01 0.000000e+00 -9.438833e-01
    outer loop
      vertex   2.934917e+02 3.000000e+01 1.769108e+02
      vertex   2.966622e+02 0.000000e+00 1.780202e+02
      vertex   2.934917e+02 0.000000e+00 1.769108e+02
    endloop
  endfacet
  facet normal 5.320321e-01 0.000000e+00 -8.467242e-01
    outer loop
      vertex   2.934917e+02 3.000000e+01 1.769108e+02
      vertex   2.934917e+02 0.000000e+00 1.769108e+02
      vertex   2.906477e+02 3.000000e+01 1.751237e+02
    endloop
  endfacet
  facet normal 5.320321e-01 0.000000e+00 -8.467242e-01
    outer loop
      vertex   2.906477e+02 3.000000e+01 1.751237e+02
      vertex   2.934917e+02 0.000000e+00 1.769108e+02
      vertex   2.906477e+02 0.000000e+00 1.751237e+02
    endloop
  endfacet
  facet normal 7.071068e-01 0.000000e+00 -7.071068e-01
    outer loop
      vertex   2.906477e+02 3.000000e+01 1.751237e+02
      vertex   2.906477e+02 0.000000e+00 1.751237e+02
      vertex   2.882725e+02 3.000000e+01 1.727486e+02
    endloop
  endfacet
  facet normal 7.071068e-01 0.000000e+00 -7.071068e-01
    outer loop
      vertex   2.882725e+02 3.000000e+01 1.727486e+02
      vertex   2.906477e+02 0.000000e+00 1.751237e+02
      vertex   2.882725e+02 0.000000e+00 1.727486e+02
    endloop
  endfacet
  facet normal 8.467242e-01 0.000000e+00 -5.320321e-01
    outer loop
      vertex   2.882725e+02 3.000000e+01 1.727486e+02
      vertex   2.882725e+02 0.000000e+00 1.727486e+02
      vertex   2.864855e+02 3.000000e+01 1.699045e+02
    endloop
  endfacet
  facet normal 8.467242e-01 0.000000e+00 -5.320321e-01
    outer loop
      vertex   2.864855e+02 3.000000e+01 1.699045e+02
      vertex   2.882725e+02 0.000000e+00 1.727486e+02
      vertex   2.864855e+02 0.000000e+00 1.699045e+02
    endloop
  endfacet
  facet normal 9.438833e-01 0.000000e+00 -3.302791e-01
    outer loop
      vertex   2.864855e+02 3.000000e+01 1.699045e+02
      vertex   2.864855e+02 0.000000e+00 1.699045e+02
      vertex   2.853761e+02 3.000000e+01 1.667341e+02
    endloop
  endfacet
  facet normal 9.438833e-01 0.000000e+00 -3.302791e-01
    outer loop
      vertex   2.853761e+02 3.000000e+01 1.667341e+02
      vertex   2.864855e+02 0.000000e+00 1.699045e+02
      vertex   2.853761e+02 0.000000e+00 1.667341e+02
    endloop
  endfacet
  facet normal -1.000000e+00 0.000000e+00 0.000000e+00
    outer loop
      vertex   3.125000e+02 0.000000e+00 8.679059e+01
      vertex   3.125000e+02 0.000000e+00 1.367906e+02
      vertex   3.125000e+02 3.000000e+01 8.679059e+01
    endloop
  endfacet
  facet normal -1.000000e+00 0.000000e+00 0.000000e+00
    outer loop
      vertex   3.125000e+02 3.000000e+01 8.679059e+01
      vertex   3.125000e+02 0.000000e+00 1.367906e+02
      vertex   3.125000e+02 3.000000e+01 1.367906e+02
    endloop
  endfacet
  facet normal -8.660254e-01 0.000000e+00 -5.000000e-01
    outer loop
      vertex   2.925000e+02 0.000000e+00 3.978530e+01
      vertex   2.075000e+02 0.000000e+00 1.870096e+02
      vertex   2.925000e+02 3.000000e+01 3.978530e+01
    endloop
  endfacet
  facet normal -8.660254e-01 0.000000e+00 -5.000000e-01
    outer loop
      vertex   2.925000e+02 3.000000e+01 3.978530e+01
      vertex   2.075000e+02 0.000000e+00 1.870096e+02
      vertex   2.075000e+02 3.000000e+01 1.870096e+02
    endloop
  endfacet
  facet normal 0.000000e+00 -1.000000e+00 0.000000e+00
    outer loop
      vertex   2.075000e+02 0.000000e+00 1.870096e+02
      vertex   2.925000e+02 0.000000e+00 3.978530e+01
      vertex   2.875000e+02 0.000000e+00 8.679059e+01
    endloop
  endfacet
  facet normal 0.000000e+00 -1.000000e+00 0.000000e+00
    outer loop
      vertex   2.875000e+02 0.000000e+00 8.679059e+01
      vertex   2.925000e+02 0.000000e+00 3.978530e+01
      vertex   3.075000e+02 0.000000e+00 3.978530e+01
    endloop
  endfacet
  facet normal 0.000000e+00 -1.000000e+00 0.000000e+00
    outer loop
      vertex   2.875000e+02 0.000000e+00 8.679059e+01
      vertex   3.075000e+02 0.000000e+00 3.978530e+01
      vertex   3.125000e+02 0.000000e+00 8.679059e+01
    endloop
  endfacet
  facet normal 0.000000e+00 -1.000000e+00 -0.000000e+00
    outer loop
      vertex   3.125000e+02 0.000000e+00 8.679059e+01
      vertex   3.075000e+02 0.000000e+00 3.978530e+01
      vertex   3.925000e+02 0.000000e+00 1.870096e+02
    endloop
  endfacet
  facet normal 0.000000e+00 -1.000000e+00 0.000000e+00
    outer loop
      vertex   3.125000e+02 0.000000e+00 8.679059e+01
      vertex   3.925000e+02 0.000000e+00 1.870096e+02
      vertex   3.125000e+02 0.000000e+00 1.367906e+02
    endloop
  endfacet
  facet normal 0.000000e+00 -1.000000e+00 0.000000e+00
    outer loop
      vertex   3.125000e+02 0.000000e+00 1.367906e+02
      vertex   3.925000e+02 0.000000e+00 1.870096e+02
      vertex   3.135145e+02 0.000000e+00 1.568880e+02
    endloop
  endfacet
  facet normal 0.000000e+00 -1.000000e+00 0.000000e+00
    outer loop
      vertex   3.125000e+02 0.000000e+00 1.367906e+02
      vertex   3.135145e+02 0.000000e+00 1.568880e+02
      vertex   3.117275e+02 0.000000e+00 1.540439e+02
    endloop
  endfacet
  facet normal 0.000000e+00 -1.000000e+00 -0.000000e+00
    outer loop
      vertex   3.850000e+02 0.000000e+00 2.000000e+02
      vertex   3.146239e+02 0.000000e+00 1.667341e+02
      vertex   3.925000e+02 0.000000e+00 1.870096e+02
    endloop
  endfacet
  facet normal 0.000000e+00 -1.000000e+00 0.000000e+00
    outer loop
      vertex   3.925000e+02 0.000000e+00 1.870096e+02
      vertex   3.146239e+02 0.000000e+00 1.667341e+02
      vertex   3.150000e+02 0.000000e+00 1.633962e+02
    endloop
  endfacet
  facet normal 0.000000e+00 -1.000000e+00 0.000000e+00
    outer loop
      vertex   3.925000e+02 0.000000e+00 1.870096e+02
      vertex   3.150000e+02 0.000000e+00 1.633962e+02
      vertex   3.146239e+02 0.000000e+00 1.600584e+02
    endloop
  endfacet
  facet normal 0.000000e+00 -1.000000e+00 0.000000e+00
    outer loop
      vertex   2.150000e+02 0.000000e+00 2.000000e+02
      vertex   3.000000e+02 0.000000e+00 1.783962e+02
      vertex   3.850000e+02 0.000000e+00 2.000000e+02
    endloop
  endfacet
  facet normal 0.000000e+00 -1.000000e+00 0.000000e+00
    outer loop
      vertex   3.850000e+02 0.000000e+00 2.000000e+02
      vertex   3.000000e+02 0.000000e+00 1.783962e+02
      vertex   3.033378e+02 0.000000e+00 1.780202e+02
    endloop
  endfacet
  facet normal 0.000000e+00 -1.000000e+00 0.000000e+00
    outer loop
      vertex   3.850000e+02 0.000000e+00 2.000000e+02
      vertex   3.033378e+02 0.000000e+00 1.780202e+02
      vertex   3.065083e+02 0.000000e+00 1.769108e+02
    endloop
  endfacet
  facet normal 0.000000e+00 -1.000000e+00 0.000000e+00
    outer loop
      vertex   2.075000e+02 0.000000e+00 1.870096e+02
      vertex   2.853761e+02 0.000000e+00 1.667341e+02
      vertex   2.150000e+02 0.000000e+00 2.000000e+02
    endloop
  endfacet
  facet normal 0.000000e+00 -1.000000e+00 0.000000e+00
    outer loop
      vertex   2.150000e+02 0.000000e+00 2.000000e+02
      vertex   2.853761e+02 0.000000e+00 1.667341e+02
      vertex   2.864855e+02 0.000000e+00 1.699045e+02
    endloop
  endfacet
  facet normal 0.000000e+00 -1.000000e+00 0.000000e+00
    outer loop
      vertex   2.150000e+02 0.000000e+00 2.000000e+02
      vertex   2.864855e+02 0.000000e+00 1.699045e+02
      vertex   2.882725e+02 0.000000e+00 1.727486e+02
    endloop
  endfacet
  facet normal 0.000000e+00 -1.000000e+00 0.000000e+00
    outer loop
      vertex   2.875000e+02 0.000000e+00 8.679059e+01
      vertex   2.875000e+02 0.000000e+00 1.367906e+02
      vertex   2.075000e+02 0.000000e+00 1.870096e+02
    endloop
  endfacet
  facet normal 0.000000e+00 -1.000000e+00 0.000000e+00
    outer loop
      vertex   2.075000e+02 0.000000e+00 1.870096e+02
      vertex   2.875000e+02 0.000000e+00 1.367906e+02
      vertex   2.864855e+02 0.000000e+00 1.568880e+02
    endloop
  endfacet
  facet normal 0.000000e+00 -1.000000e+00 0.000000e+00
    outer loop
      vertex   2.075000e+02 0.000000e+00 1.870096e+02
      vertex   2.864855e+02 0.000000e+00 1.568880e+02
      vertex   2.853761e+02 0.000000e+00 1.600584e+02
    endloop
  endfacet
  facet normal 0.000000e+00 -1.000000e+00 0.000000e+00
    outer loop
      vertex   3.125000e+02 0.000000e+00 1.367906e+02
      vertex   3.000000e+02 0.000000e+00 1.483962e+02
      vertex   2.875000e+02 0.000000e+00 1.367906e+02
    endloop
  endfacet
  facet normal 0.000000e+00 -1.000000e+00 0.000000e+00
    outer loop
      vertex   2.875000e+02 0.000000e+00 1.367906e+02
      vertex   3.000000e+02 0.000000e+00 1.483962e+02
      vertex   2.966622e+02 0.000000e+00 1.487723e+02
    endloop
  endfacet
  facet normal 0.000000e+00 -1.000000e+00 0.000000e+00
    outer loop
      vertex   2.875000e+02 0.000000e+00 1.367906e+02
      vertex   2.966622e+02 0.000000e+00 1.487723e+02
      vertex   2.934917e+02 0.000000e+00 1.498817e+02
    endloop
  endfacet
  facet normal 0.000000e+00 -1.000000e+00 0.000000e+00
    outer loop
      vertex   2.853761e+02 0.000000e+00 1.600584e+02
      vertex   2.850000e+02 0.000000e+00 1.633962e+02
      vertex   2.075000e+02 0.000000e+00 1.870096e+02
    endloop
  endfacet
  facet normal 0.000000e+00 -1.000000e+00 0.000000e+00
    outer loop
      vertex   2.075000e+02 0.000000e+00 1.870096e+02
      vertex   2.850000e+02 0.000000e+00 1.633962e+02
      vertex   2.853761e+02 0.000000e+00 1.667341e+02
    endloop
  endfacet
  facet normal 0.000000e+00 -1.000000e+00 0.000000e+00
    outer loop
      vertex   2.882725e+02 0.000000e+00 1.727486e+02
      vertex   2.906477e+02 0.000000e+00 1.751237e+02
      vertex   2.150000e+02 0.000000e+00 2.000000e+02
    endloop
  endfacet
  facet normal 0.000000e+00 -1.000000e+00 0.000000e+00
    outer loop
      vertex   2.150000e+02 0.000000e+00 2.000000e+02
      vertex   2.906477e+02 0.000000e+00 1.751237e+02
      vertex   2.934917e+02 0.000000e+00 1.769108e+02
    endloop
  endfacet
  facet normal 0.000000e+00 -1.000000e+00 0.000000e+00
    outer loop
      vertex   2.150000e+02 0.000000e+00 2.000000e+02
      vertex   2.934917e+02 0.000000e+00 1.769108e+02
      vertex   2.966622e+02 0.000000e+00 1.780202e+02
    endloop
  endfacet
  facet normal 0.000000e+00 -1.000000e+00 0.000000e+00
    outer loop
      vertex   2.966622e+02 0.000000e+00 1.780202e+02
      vertex   3.000000e+02 0.000000e+00 1.783962e+02
      vertex   2.150000e+02 0.000000e+00 2.000000e+02
    endloop
  endfacet
  facet normal 0.000000e+00 -1.000000e+00 0.000000e+00
    outer loop
      vertex   3.065083e+02 0.000000e+00 1.769108e+02
      vertex   3.093523e+02 0.000000e+00 1.751237e+02
      vertex   3.850000e+02 0.000000e+00 2.000000e+02
    endloop
  endfacet
  facet normal 0.000000e+00 -1.000000e+00 0.000000e+00
    outer loop
      vertex   3.850000e+02 0.000000e+00 2.000000e+02
      vertex   3.093523e+02 0.000000e+00 1.751237e+02
      vertex   3.117275e+02 0.000000e+00 1.727486e+02
    endloop
  endfacet
  facet normal 0.000000e+00 -1.000000e+00 0.000000e+00
    outer loop
      vertex   3.850000e+02 0.000000e+00 2.000000e+02
      vertex   3.117275e+02 0.000000e+00 1.727486e+02
      vertex   3.135145e+02 0.000000e+00 1.699045e+02
    endloop
  endfacet
  facet normal 0.000000e+00 -1.000000e+00 0.000000e+00
    outer loop
      vertex   3.135145e+02 0.000000e+00 1.699045e+02
      vertex   3.146239e+02 0.000000e+00 1.667341e+02
      vertex   3.850000e+02 0.000000e+00 2.000000e+02
    endloop
  endfacet
  facet normal 0.000000e+00 -1.000000e+00 -0.000000e+00
    outer loop
      vertex   3.146239e+02 0.000000e+00 1.600584e+02
      vertex   3.135145e+02 0.000000e+00 1.568880e+02
      vertex   3.925000e+02 0.000000e+00 1.870096e+02
    endloop
  endfacet
  facet normal 0.000000e+00 -1.000000e+00 -0.000000e+00
    outer loop
      vertex   3.117275e+02 0.000000e+00 1.540439e+02
      vertex   3.093523e+02 0.000000e+00 1.516688e+02
      vertex   3.125000e+02 0.000000e+00 1.367906e+02
    endloop
  endfacet
  facet normal 0.000000e+00 -1.000000e+00 0.000000e+00
    outer loop
      vertex   3.125000e+02 0.000000e+00 1.367906e+02
      vertex   3.093523e+02 0.000000e+00 1.516688e+02
      vertex   3.065083e+02 0.000000e+00 1.498817e+02
    endloop
  endfacet
  facet normal 0.000000e+00 -1.000000e+00 0.000000e+00
    outer loop
      vertex   3.125000e+02 0.000000e+00 1.367906e+02
      vertex   3.065083e+02 0.000000e+00 1.498817e+02
      vertex   3.033378e+02 0.000000e+00 1.487723e+02
    endloop
  endfacet
  facet normal 0.000000e+00 -1.000000e+00 -0.000000e+00
    outer loop
      vertex   3.033378e+02 0.000000e+00 1.487723e+02
      vertex   3.000000e+02 0.000000e+00 1.483962e+02
      vertex   3.125000e+02 0.000000e+00 1.367906e+02
    endloop
  endfacet
  facet normal -0.000000e+00 -1.000000e+00 0.000000e+00
    outer loop
      vertex   2.934917e+02 0.000000e+00 1.498817e+02
      vertex   2.906477e+02 0.000000e+00 1.516688e+02
      vertex   2.875000e+02 0.000000e+00 1.367906e+02
    endloop
  endfacet
  facet normal 0.000000e+00 -1.000000e+00 0.000000e+00
    outer loop
      vertex   2.875000e+02 0.000000e+00 1.367906e+02
      vertex   2.906477e+02 0.000000e+00 1.516688e+02
      vertex   2.882725e+02 0.000000e+00 1.540439e+02
    endloop
  endfacet
  facet normal 0.000000e+00 -1.000000e+00 0.000000e+00
    outer loop
      vertex   2.875000e+02 0.000000e+00 1.367906e+02
      vertex   2.882725e+02 0.000000e+00 1.540439e+02
      vertex   2.864855e+02 0.000000e+00 1.568880e+02
    endloop
  endfacet
endsolid
